<?xml version="1.0" encoding="utf-8"?>
<!-- Generator: Adobe Illustrator 24.0.1, SVG Export Plug-In . SVG Version: 6.00 Build 0)  -->
<svg version="1.1" id="Layer_1" xmlns="http://www.w3.org/2000/svg" xmlns:xlink="http://www.w3.org/1999/xlink" x="0px" y="0px"
	 viewBox="0 0 1024.6 309.44" style="enable-background:new 0 0 1024.6 309.44;" xml:space="preserve">
<style type="text/css">
	.st0{fill:#231F20;}
	.st1{fill:#F8B018;}
	.st2{fill:#F68E20;}
	.st3{fill:#FFCA29;}
	.st4{fill:#08456C;}
	.st5{fill:url(#SVGID_1_);}
	.st6{fill:url(#SVGID_2_);}
	.st7{fill:url(#SVGID_3_);}
</style>
<path class="st0" d="M290.73,133.86c3.63-0.32,7.3-0.58,11.02-0.77c3.71-0.19,7.46-0.3,11.26-0.3c3.95,0,7.96,0.39,12.03,1.19
	c4.07,0.79,7.74,2.27,11.02,4.45c3.28,2.17,5.94,5.19,8,9.06c2.05,3.87,3.08,8.88,3.08,15.05c0,6.16-1.03,11.16-3.08,14.99
	c-2.06,3.83-4.71,6.85-7.94,9.06c-3.24,2.21-6.86,3.71-10.84,4.51c-3.99,0.79-7.92,1.18-11.79,1.18c-1.03,0-1.99-0.02-2.9-0.06
	c-0.91-0.04-1.76-0.1-2.54-0.18v27.37c-1.51,0.24-2.97,0.39-4.39,0.48c-1.42,0.08-2.8,0.12-4.14,0.12c-1.27,0-2.65-0.04-4.15-0.12
	c-1.5-0.08-3.04-0.24-4.62-0.48V133.86z M308.03,177.71c0.95,0.16,1.83,0.24,2.66,0.24c0.83,0,1.84,0,3.02,0
	c1.97,0,3.91-0.25,5.81-0.77c1.9-0.52,3.58-1.37,5.04-2.55c1.46-1.18,2.63-2.74,3.5-4.68c0.87-1.93,1.3-4.33,1.3-7.17
	c0-2.92-0.43-5.39-1.3-7.41c-0.87-2.02-2.04-3.63-3.5-4.86c-1.46-1.22-3.14-2.09-5.04-2.61c-1.9-0.51-3.83-0.77-5.81-0.77
	c-0.87,0-1.68,0.02-2.43,0.06c-0.75,0.04-1.84,0.14-3.26,0.3V177.71z"/>
<path class="st0" d="M389.21,179.12c0-1.9-0.32-3.44-0.95-4.62c-0.63-1.18-1.51-2.11-2.61-2.79c-1.11-0.67-2.47-1.13-4.09-1.36
	c-1.62-0.24-3.42-0.35-5.39-0.35c-4.27,0-8.81,0.83-13.63,2.49c-1.11-2.05-1.94-3.99-2.49-5.81c-0.55-1.82-0.83-4-0.83-6.52
	c3.48-1.19,6.95-2.06,10.43-2.61c3.47-0.55,6.71-0.83,9.71-0.83c8.22,0,14.64,1.98,19.26,5.93c4.62,3.95,6.93,10.27,6.93,18.96
	v35.55c-2.76,0.87-6.12,1.7-10.07,2.49c-3.95,0.79-8.42,1.18-13.39,1.18c-4.03,0-7.72-0.35-11.08-1.06
	c-3.36-0.71-6.24-1.9-8.65-3.55c-2.41-1.66-4.27-3.79-5.57-6.4c-1.3-2.61-1.96-5.81-1.96-9.6c0-3.79,0.81-6.97,2.43-9.54
	c1.62-2.57,3.71-4.62,6.28-6.16c2.56-1.54,5.43-2.64,8.59-3.32c3.16-0.67,6.32-1,9.48-1c2.29,0,4.82,0.12,7.58,0.35V179.12z
	 M389.21,191.33c-0.95-0.16-1.97-0.3-3.08-0.42c-1.11-0.12-2.09-0.18-2.96-0.18c-3.87,0-6.93,0.69-9.19,2.07
	c-2.25,1.39-3.38,3.62-3.38,6.7c0,2.06,0.43,3.63,1.3,4.74c0.87,1.11,1.92,1.92,3.14,2.43c1.22,0.52,2.53,0.83,3.91,0.95
	c1.38,0.12,2.59,0.18,3.62,0.18c1.19,0,2.37-0.1,3.55-0.3c1.19-0.2,2.21-0.38,3.08-0.53V191.33z"/>
<path class="st0" d="M423.81,170.95h-7.94c-0.24-1.03-0.41-2.11-0.54-3.26c-0.12-1.14-0.18-2.23-0.18-3.26
	c0-2.13,0.24-4.22,0.71-6.28h24.41v61.27c-2.85,0.48-5.62,0.71-8.3,0.71c-2.61,0-5.33-0.24-8.18-0.71V170.95z M421.32,147.84
	c-0.47-2.68-0.71-5.33-0.71-7.94c0-2.53,0.24-5.17,0.71-7.94c1.34-0.24,2.79-0.41,4.33-0.53c1.54-0.12,2.94-0.18,4.2-0.18
	c1.34,0,2.8,0.06,4.38,0.18c1.58,0.12,3.04,0.3,4.39,0.53c0.24,1.35,0.39,2.67,0.47,3.97c0.08,1.3,0.12,2.63,0.12,3.97
	c0,1.26-0.04,2.57-0.12,3.91c-0.08,1.35-0.23,2.69-0.47,4.03c-1.35,0.24-2.79,0.39-4.33,0.48c-1.54,0.08-2.98,0.12-4.33,0.12
	c-1.26,0-2.69-0.04-4.26-0.12C424.12,148.24,422.66,148.08,421.32,147.84z"/>
<path class="st0" d="M468.72,192.76c-4.42-1.26-7.88-3.14-10.37-5.63c-2.49-2.48-3.73-6.22-3.73-11.2c0-6,2.15-10.7,6.46-14.1
	c4.3-3.4,10.17-5.1,17.6-5.1c3.08,0,6.12,0.28,9.13,0.83c3,0.55,6.04,1.38,9.13,2.49c-0.16,2.05-0.55,4.19-1.19,6.4
	c-0.63,2.21-1.38,4.15-2.25,5.81c-1.9-0.79-3.99-1.48-6.29-2.07c-2.29-0.59-4.7-0.89-7.22-0.89c-2.69,0-4.78,0.42-6.28,1.25
	s-2.25,2.15-2.25,3.97c0,1.74,0.54,2.96,1.6,3.67c1.06,0.71,2.59,1.39,4.56,2.02l6.76,2.01c2.21,0.63,4.2,1.41,5.98,2.31
	c1.78,0.91,3.3,2.04,4.56,3.38c1.26,1.34,2.25,3,2.96,4.98c0.71,1.98,1.06,4.38,1.06,7.23c0,2.93-0.61,5.65-1.84,8.18
	c-1.22,2.53-3,4.72-5.33,6.58c-2.33,1.86-5.16,3.32-8.47,4.39c-3.32,1.06-7.07,1.6-11.26,1.6c-1.89,0-3.63-0.06-5.21-0.18
	c-1.58-0.12-3.1-0.32-4.56-0.59c-1.46-0.28-2.9-0.61-4.33-1.01c-1.42-0.4-2.96-0.91-4.62-1.54c0.16-2.13,0.53-4.28,1.13-6.46
	c0.59-2.17,1.36-4.29,2.31-6.34c2.61,1.03,5.08,1.79,7.4,2.31c2.33,0.51,4.76,0.77,7.29,0.77c1.11,0,2.31-0.1,3.62-0.3
	c1.3-0.2,2.51-0.55,3.62-1.07c1.11-0.51,2.03-1.18,2.78-2.01c0.75-0.83,1.13-1.91,1.13-3.26c0-1.9-0.57-3.26-1.72-4.09
	c-1.14-0.83-2.74-1.56-4.8-2.19L468.72,192.76z"/>
<path class="st0" d="M541.95,179.12c0-1.9-0.31-3.44-0.95-4.62c-0.63-1.18-1.5-2.11-2.61-2.79c-1.11-0.67-2.47-1.13-4.09-1.36
	c-1.62-0.24-3.42-0.35-5.39-0.35c-4.27,0-8.81,0.83-13.63,2.49c-1.11-2.05-1.94-3.99-2.49-5.81c-0.55-1.82-0.83-4-0.83-6.52
	c3.48-1.19,6.95-2.06,10.43-2.61c3.47-0.55,6.71-0.83,9.71-0.83c8.21,0,14.63,1.98,19.26,5.93c4.62,3.95,6.93,10.27,6.93,18.96
	v35.55c-2.76,0.87-6.12,1.7-10.07,2.49c-3.95,0.79-8.41,1.18-13.39,1.18c-4.03,0-7.72-0.35-11.08-1.06
	c-3.36-0.71-6.24-1.9-8.65-3.55c-2.41-1.66-4.27-3.79-5.57-6.4c-1.3-2.61-1.96-5.81-1.96-9.6c0-3.79,0.81-6.97,2.43-9.54
	c1.62-2.57,3.71-4.62,6.28-6.16c2.56-1.54,5.43-2.64,8.59-3.32c3.16-0.67,6.32-1,9.48-1c2.29,0,4.82,0.12,7.58,0.35V179.12z
	 M541.95,191.33c-0.95-0.16-1.97-0.3-3.08-0.42c-1.11-0.12-2.09-0.18-2.96-0.18c-3.88,0-6.94,0.69-9.19,2.07
	c-2.25,1.39-3.38,3.62-3.38,6.7c0,2.06,0.43,3.63,1.3,4.74c0.87,1.11,1.92,1.92,3.14,2.43c1.22,0.52,2.53,0.83,3.91,0.95
	c1.38,0.12,2.59,0.18,3.62,0.18c1.19,0,2.37-0.1,3.55-0.3c1.19-0.2,2.21-0.38,3.08-0.53V191.33z"/>
<path class="st0" d="M624.19,212.9l0.47,5.93c-7.42,0.47-19.07,0.71-34.96,0.71c-4.35,0-7.84-1.23-10.49-3.68
	c-2.65-2.45-3.97-5.73-3.97-9.84v-54.98c0-4.11,1.32-7.39,3.97-9.84c2.64-2.45,6.14-3.67,10.49-3.67c15.88,0,27.53,0.24,34.96,0.71
	l-0.47,5.92h-33.18c-5.29,0-7.94,2.88-7.94,8.65v20.03h36.5v6.28h-36.5v25.24c0,5.69,2.64,8.54,7.94,8.54H624.19z"/>
<path class="st0" d="M663.07,192.52h-2.61l-17.89,26.9h-8.3l20.03-29.74l-18.61-27.61h8.29l16.24,24.41h3.08l32.94-48.9h8.29
	l-35.31,52.1l20.15,29.74h-8.41L663.07,192.52z"/>
<path class="st0" d="M708.69,162.06l0.71,9.48c7.35-7.34,15.24-11.02,23.7-11.02c7.11,0,12.25,2.45,15.4,7.35
	c3.16,4.9,4.74,12.6,4.74,23.11c0,10.82-1.68,18.51-5.04,23.04c-3.36,4.54-8.79,6.81-16.29,6.81c-7.58,0-14.97-2.01-22.16-6.04
	c0.31,3.24,0.39,7.03,0.24,11.38v17.42h-7.46v-81.53H708.69z M709.99,176.99v32.94c8.77,2.84,15.53,4.27,20.27,4.27
	c5.61,0,9.55-1.68,11.85-5.03c2.29-3.36,3.44-9.46,3.44-18.31c0-8.69-1.11-14.81-3.32-18.37c-2.21-3.56-5.97-5.34-11.26-5.34
	c-3.16,0-6.32,0.77-9.48,2.31C718.33,171.01,714.49,173.52,709.99,176.99z"/>
<path class="st0" d="M804.91,160.52l-0.95,7.11h-2.84c-3.32,0-6.68,0.69-10.07,2.08c-3.4,1.38-7.74,3.65-13.04,6.81v42.9h-7.58
	v-57.35h5.8l0.83,9.48c9.4-7.34,17.86-11.02,25.36-11.02H804.91z"/>
<path class="st0" d="M848.76,194.41h-28.68c0.48,7.58,2.21,12.8,5.21,15.64c3,2.85,7.9,4.27,14.7,4.27c5.93,0,12.52-0.47,19.79-1.42
	l0.83,5.1c-4.9,1.89-12.13,2.84-21.69,2.84c-9.64,0-16.49-2.31-20.56-6.93c-4.07-4.62-6.1-12.42-6.1-23.4
	c0-11.06,1.97-18.82,5.93-23.29c3.95-4.46,10.54-6.7,19.79-6.7c8.14,0,14.14,1.48,18.01,4.44c3.87,2.96,5.84,7.45,5.93,13.45
	C862.07,189.08,857.68,194.41,848.76,194.41z M820.08,188.49h26.9c5.05,0,7.5-3.32,7.35-9.96c-0.08-4.03-1.38-6.95-3.91-8.77
	c-2.53-1.81-6.55-2.72-12.08-2.72c-6.72,0-11.42,1.56-14.1,4.68C821.54,174.84,820.16,180.43,820.08,188.49z"/>
<path class="st0" d="M905.16,195.12l-17.54-3.31c-4.5-0.87-7.76-2.51-9.78-4.92c-2.01-2.41-3.02-5.98-3.02-10.72
	c0-6.48,1.64-10.72,4.92-12.74c3.28-2.01,8.98-2.98,17.13-2.9c8.69,0.16,16.51,0.75,23.46,1.78l-0.71,5.45
	c-9.48-0.47-16.75-0.71-21.8-0.71c-6.32-0.08-10.51,0.38-12.56,1.36c-2.05,0.99-3.08,3.58-3.08,7.76c0,3.24,0.67,5.49,2.01,6.75
	c1.34,1.26,3.6,2.21,6.76,2.84l17.66,3.32c4.58,0.95,7.94,2.59,10.07,4.92c2.13,2.33,3.2,5.83,3.2,10.49
	c0,6.71-1.79,11.1-5.39,13.15c-3.59,2.06-9.73,3.08-18.43,3.08c-7.82,0-15.13-0.51-21.92-1.54l0.59-5.57
	c6.24,0.56,12.92,0.79,20.02,0.71c7.03-0.08,11.75-0.73,14.16-1.96c2.41-1.22,3.62-3.85,3.62-7.88c0-3.08-0.75-5.26-2.25-6.52
	C910.77,196.71,908.41,195.76,905.16,195.12z"/>
<path class="st0" d="M965.01,195.12l-17.54-3.31c-4.5-0.87-7.76-2.51-9.78-4.92c-2.01-2.41-3.02-5.98-3.02-10.72
	c0-6.48,1.64-10.72,4.91-12.74c3.28-2.01,8.99-2.98,17.13-2.9c8.69,0.16,16.51,0.75,23.46,1.78l-0.71,5.45
	c-9.48-0.47-16.75-0.71-21.8-0.71c-6.32-0.08-10.51,0.38-12.56,1.36c-2.05,0.99-3.08,3.58-3.08,7.76c0,3.24,0.67,5.49,2.01,6.75
	c1.34,1.26,3.59,2.21,6.76,2.84l17.65,3.32c4.58,0.95,7.94,2.59,10.08,4.92c2.13,2.33,3.2,5.83,3.2,10.49
	c0,6.71-1.8,11.1-5.39,13.15c-3.6,2.06-9.74,3.08-18.43,3.08c-7.82,0-15.13-0.51-21.92-1.54l0.59-5.57
	c6.24,0.56,12.92,0.79,20.03,0.71c7.03-0.08,11.75-0.73,14.16-1.96c2.41-1.22,3.62-3.85,3.62-7.88c0-3.08-0.75-5.26-2.25-6.52
	C970.62,196.71,968.25,195.76,965.01,195.12z"/>
<path class="st1" d="M130.72,152.36c0,0-13.6-70.4-64.49-126.3C40.88,33.3,24.98,36.63,24.98,36.63S101.59,86.54,130.72,152.36z"/>
<path class="st2" d="M120.3,142.45c0,0-17.82-39.19-77.92-87.5c-17.46,8.88-30.26,14.47-30.26,14.47S85.47,101.85,120.3,142.45z"/>
<g>
	<path class="st3" d="M148.06,177.42l0.01,0.07C148.06,177.49,149.75,177.44,148.06,177.42z"/>
	<path class="st3" d="M231.45,103.02l-34.53-74.87c-1.41-3.26-3.84-7.75-8.23-14.81c-7.95,0.02-12.71,0-12.71,0L61.81,12.68
		c0,0,36.56,35.71,59.05,90.58c8.97,21.91,15.69,46.97,16.96,74.23c6.22-0.07,9.05-0.08,10.24-0.07l-0.55-6.68l53.75-30.19
		c0,0,22.6-21.52,31.67-31.68c0-0.02,0-0.02,0-0.02L231.45,103.02z"/>
</g>
<g>
	<g>
		<path class="st0" d="M177.13,68.77c-0.26-0.15-0.56-0.19-0.88-0.1l-5.94,1.51c-0.88-1.83-2.04-3.3-3.49-4.44l8.09-2.04
			c0.33-0.09,0.56-0.26,0.71-0.52c0.15-0.26,0.19-0.55,0.11-0.88l-0.9-3.54c-0.08-0.33-0.26-0.56-0.51-0.72
			c-0.26-0.15-0.56-0.2-0.89-0.11l-28.88,7.33c-0.32,0.08-0.56,0.25-0.71,0.52c-0.16,0.25-0.2,0.54-0.12,0.87l1.17,4.62
			c0.08,0.3,0.26,0.53,0.53,0.7c0.27,0.16,0.56,0.21,0.87,0.13l5.02-1.28c4.88-1.24,8.32-0.72,10.3,1.56l-14.33,3.64
			c-0.33,0.08-0.57,0.25-0.72,0.51c-0.16,0.27-0.2,0.56-0.12,0.88l0.9,3.54c0.08,0.32,0.26,0.56,0.52,0.72
			c0.25,0.16,0.55,0.19,0.87,0.11l14.83-3.76c-0.03,2.03-0.85,3.77-2.46,5.24c-1.61,1.47-3.94,2.6-6.99,3.37l-3.89,0.99
			c-0.3,0.08-0.54,0.25-0.7,0.53c-0.17,0.27-0.21,0.56-0.13,0.86l1.12,4.42c0.08,0.3,0.25,0.53,0.51,0.68
			c5.65,3.6,13.09,8.74,22.32,15.44c0.28,0.22,0.61,0.29,0.98,0.2l6.76-1.72c0.48-0.12,0.77-0.42,0.85-0.88
			c0.12-0.48-0.02-0.86-0.44-1.15c-8.86-6.57-15.74-11.42-20.65-14.56c3.82-1.46,6.69-3.55,8.62-6.25c1.93-2.71,2.73-5.79,2.42-9.26
			l5.83-1.48c0.33-0.08,0.56-0.25,0.72-0.52c0.14-0.26,0.19-0.55,0.1-0.87l-0.9-3.55C177.56,69.17,177.39,68.93,177.13,68.77
			L177.13,68.77z M177.13,68.77"/>
	</g>
</g>
<path class="st0" d="M114.57,202.57c11.86-4.72,26.03-13.6,39.57-23.31c2.63-1.88,5.24-3.8,7.8-5.71
	c23.25-17.42,42.82-35.33,42.82-35.33s20.28-19.22,28.9-28.8c0.76-0.82,1.4-1.56,1.94-2.21c0.88-1.06,2.17-2.8,3.54-4.77
	c3.48-4.93,2.81-5.4,3.17-5.93c-0.41,0.39,0.42-1.75-6.35,4.22c-2.08,1.84-4.41,3.88-7,6.13c-18.46,15.93-49.17,41.09-83.89,63.72
	c-1.02,0.69-2.09,1.37-3.14,2.05c-0.9,0.6-1.82,1.17-2.74,1.75c-58.93,37.42-30.32-12.98-30.32-12.98
	C97.04,168.94,79.52,216.52,114.57,202.57z"/>
<path class="st0" d="M262.05,214.56l-18.66-73.59l-3.43-13.46c-0.91,0.87-1.83,1.72-2.75,2.53c-1.35,1.76-2.78,3.52-4.3,5.29
	l0.03,0.13l-2.54,2.81l-77.69,56.53l-6.7,2.85l1.14,3.42l0.84,3.41l9.32,36.68c1.69,6.69,8.57,10.77,15.28,9.08l80.34-20.4
	C259.64,228.12,263.77,221.27,262.05,214.56z"/>
<path class="st3" d="M273.2,101.95c-7.51,10.33-19.61,21.87-32.36,32.6c-2.46,2.09-4.97,4.14-7.46,6.15
	c-22.62,18.24-44.8,32.78-44.8,32.78s-23.63,14.9-35.04,20.9c-0.97,0.53-1.86,0.97-2.62,1.33c-1.24,0.59-3.25,1.42-5.49,2.25
	c-5.64,2.15-5.92,1.4-6.53,1.61c0.48-0.31-1.79-0.03,5.66-5.11c2.29-1.57,4.86-3.32,7.67-5.26c19.99-13.96,51.95-37.51,82.45-65.58
	c0.92-0.83,1.84-1.69,2.75-2.54c0.8-0.73,1.59-1.48,2.37-2.22c50.81-47.88-5.1-32.59-5.1-32.59
	C244.93,76.67,295.37,71.42,273.2,101.95z"/>
<path class="st4" d="M670.73,191.81l-1.49-2.22l1.42-2.1l-1.47,2.1L670.73,191.81z"/>
<linearGradient id="SVGID_1_" gradientUnits="userSpaceOnUse" x1="14935.8994" y1="219.3446" x2="14935.8994" y2="192.4354" gradientTransform="matrix(-1 0 0 1 15583.2217 0)">
	<stop  offset="0" style="stop-color:#D58C28"/>
	<stop  offset="1" style="stop-color:#F4B01B"/>
</linearGradient>
<polygon class="st5" points="634.17,219.34 642.6,219.34 660.47,192.44 652.39,192.44 "/>
<linearGradient id="SVGID_2_" gradientUnits="userSpaceOnUse" x1="14899.2852" y1="186.4022" x2="14899.2852" y2="137.4891" gradientTransform="matrix(-1 0 0 1 15583.2217 0)">
	<stop  offset="0" style="stop-color:#D58C28"/>
	<stop  offset="1" style="stop-color:#F4B01B"/>
</linearGradient>
<polygon class="st6" points="663.32,186.4 671.38,186.4 704.55,137.49 696.27,137.49 "/>
<linearGradient id="SVGID_3_" gradientUnits="userSpaceOnUse" x1="14921.4199" y1="192.4354" x2="14921.4199" y2="186.4022" gradientTransform="matrix(-1 0 0 1 15583.2217 0)">
	<stop  offset="0" style="stop-color:#D58C28"/>
	<stop  offset="1" style="stop-color:#F4B01B"/>
</linearGradient>
<polygon class="st7" points="654.35,189.59 652.41,192.44 671.17,192.44 670.75,191.81 669.21,189.59 670.68,187.49 671.41,186.4 
	652.19,186.4 "/>
<g>
	<path class="st0" d="M403.82,256.55c0.26-0.04,0.6-0.06,1.05-0.08c0.44-0.02,0.84-0.03,1.21-0.03c0.4,0,0.82,0.01,1.24,0.03
		c0.42,0.02,0.76,0.05,1.02,0.08l13.2,39.54c-0.22,0.04-0.53,0.06-0.93,0.08c-0.4,0.02-0.79,0.03-1.16,0.03
		c-0.33,0-0.68-0.01-1.04-0.03c-0.37-0.02-0.68-0.05-0.94-0.08l-3.3-10.07h-16.28l-3.13,10.07c-0.29,0.04-0.63,0.06-1.02,0.08
		c-0.39,0.02-0.74,0.03-1.07,0.03c-0.37,0-0.74-0.01-1.13-0.03c-0.38-0.02-0.69-0.05-0.91-0.08L403.82,256.55z M413.06,282.51
		l-7.1-22l-6.98,22H413.06z"/>
	<path class="st0" d="M430.22,255.67c0.22-0.04,0.52-0.06,0.91-0.08c0.38-0.02,0.69-0.03,0.91-0.03c0.18,0,0.48,0.01,0.88,0.03
		c0.4,0.02,0.71,0.05,0.94,0.08v16.28c0.77-1.17,1.88-2.23,3.33-3.16c1.45-0.93,3.33-1.4,5.64-1.4c1.72,0,3.3,0.27,4.73,0.8
		s2.65,1.37,3.66,2.5c1.01,1.14,1.8,2.57,2.37,4.29c0.57,1.72,0.85,3.79,0.85,6.21c0,4.88-1.34,8.69-4.02,11.44
		c-2.68,2.75-6.54,4.13-11.6,4.13c-1.65,0-3.25-0.16-4.79-0.47c-1.54-0.31-2.8-0.65-3.79-1.02V255.67z M433.85,292.74
		c0.84,0.29,1.73,0.5,2.67,0.63c0.93,0.13,1.93,0.19,3,0.19c1.47,0,2.87-0.24,4.21-0.71c1.34-0.48,2.51-1.21,3.52-2.2
		c1.01-0.99,1.82-2.25,2.42-3.77c0.6-1.52,0.91-3.34,0.91-5.47c0-3.34-0.63-5.96-1.9-7.87c-1.27-1.91-3.31-2.86-6.13-2.86
		c-0.88,0-1.83,0.15-2.86,0.44c-1.03,0.29-1.97,0.79-2.83,1.48c-0.86,0.7-1.58,1.62-2.15,2.78c-0.57,1.15-0.85,2.61-0.85,4.37
		V292.74z"/>
	<path class="st0" d="M481.92,255.67c0.22-0.04,0.52-0.06,0.91-0.08c0.38-0.02,0.69-0.03,0.91-0.03c0.18,0,0.48,0.01,0.88,0.03
		c0.4,0.02,0.71,0.05,0.94,0.08v33.93c0,0.95,0.11,1.7,0.33,2.23c0.22,0.53,0.49,0.92,0.82,1.16c0.33,0.24,0.7,0.38,1.1,0.44
		c0.4,0.06,0.77,0.08,1.1,0.08c0.4,0,0.82-0.03,1.26-0.08c0.44-0.05,0.81-0.12,1.1-0.19c0.18,0.44,0.31,0.92,0.39,1.43
		c0.07,0.51,0.13,0.99,0.16,1.43c-0.51,0.18-1.09,0.31-1.73,0.38c-0.64,0.07-1.24,0.11-1.79,0.11c-0.77,0-1.54-0.08-2.31-0.25
		c-0.77-0.17-1.46-0.48-2.06-0.93c-0.6-0.46-1.09-1.08-1.46-1.87c-0.37-0.79-0.55-1.82-0.55-3.11V255.67z"/>
	<path class="st0" d="M502.33,282.62c0,3.74,0.86,6.49,2.58,8.25c1.72,1.76,4.31,2.64,7.76,2.64c1.39,0,2.69-0.12,3.88-0.36
		c1.19-0.24,2.36-0.56,3.49-0.96c0.18,0.4,0.33,0.9,0.44,1.49c0.11,0.59,0.18,1.12,0.22,1.59c-1.06,0.48-2.31,0.84-3.74,1.1
		c-1.43,0.26-2.99,0.38-4.67,0.38c-2.42,0-4.5-0.36-6.24-1.07c-1.74-0.72-3.17-1.71-4.29-3c-1.12-1.28-1.94-2.81-2.47-4.59
		c-0.53-1.78-0.8-3.73-0.8-5.86c0-2.05,0.25-3.98,0.74-5.77c0.5-1.8,1.25-3.37,2.25-4.73c1.01-1.36,2.3-2.42,3.88-3.19
		c1.58-0.77,3.47-1.16,5.67-1.16c1.83,0,3.46,0.31,4.89,0.93c1.43,0.62,2.63,1.5,3.6,2.61s1.71,2.46,2.2,4.01
		c0.5,1.56,0.74,3.25,0.74,5.09c0,0.33-0.01,0.75-0.03,1.26c-0.02,0.51-0.05,0.95-0.08,1.32H502.33z M518.83,279.6
		c0-1.14-0.15-2.25-0.44-3.36c-0.29-1.1-0.75-2.06-1.38-2.89c-0.62-0.83-1.43-1.49-2.42-2.01c-0.99-0.51-2.18-0.77-3.57-0.77
		c-2.57,0-4.57,0.79-6,2.36c-1.43,1.58-2.29,3.79-2.58,6.66H518.83z"/>
	<path class="st0" d="M533.18,268.05c0.29-0.04,0.58-0.06,0.85-0.08c0.27-0.02,0.54-0.03,0.8-0.03c0.29,0,0.57,0.01,0.82,0.03
		c0.26,0.02,0.53,0.05,0.83,0.08c0.07,0.66,0.13,1.48,0.16,2.47s0.05,1.85,0.05,2.58c0.37-0.66,0.84-1.33,1.43-2.01
		c0.59-0.68,1.27-1.29,2.06-1.84c0.79-0.55,1.7-1,2.72-1.35c1.03-0.35,2.15-0.52,3.35-0.52c3.23,0,5.57,0.96,7.04,2.89
		c1.46,1.92,2.2,4.63,2.2,8.11v17.71c-0.22,0.04-0.52,0.06-0.91,0.08c-0.39,0.02-0.69,0.03-0.91,0.03c-0.18,0-0.48-0.01-0.88-0.03
		s-0.71-0.05-0.93-0.08v-16.61c0-3.12-0.49-5.35-1.46-6.71c-0.97-1.36-2.43-2.04-4.37-2.04c-1.28,0-2.49,0.26-3.63,0.77
		c-1.14,0.51-2.12,1.26-2.94,2.23c-0.83,0.97-1.48,2.17-1.95,3.6c-0.48,1.43-0.71,3.06-0.71,4.89v13.86
		c-0.22,0.04-0.52,0.06-0.91,0.08s-0.69,0.03-0.91,0.03c-0.18,0-0.48-0.01-0.88-0.03c-0.4-0.02-0.71-0.05-0.94-0.08V268.05z"/>
	<path class="st0" d="M579.49,278.61c0.04,0.18,0.06,0.47,0.08,0.85c0.02,0.38,0.03,0.72,0.03,1.02c0,0.29-0.01,0.62-0.03,0.99
		c-0.02,0.37-0.05,0.64-0.08,0.83h-14.47c-0.04-0.18-0.06-0.46-0.08-0.83c-0.02-0.37-0.03-0.7-0.03-0.99c0-0.29,0.01-0.63,0.03-1.02
		s0.05-0.67,0.08-0.85H579.49z"/>
	<path class="st0" d="M608.42,255.67c0.22-0.04,0.53-0.06,0.93-0.08c0.4-0.02,0.7-0.03,0.88-0.03c0.22,0,0.52,0.01,0.91,0.03
		c0.38,0.02,0.69,0.05,0.91,0.08v39.76c-1.14,0.37-2.55,0.68-4.23,0.94c-1.69,0.26-3.45,0.38-5.28,0.38c-2.02,0-3.91-0.24-5.67-0.71
		c-1.76-0.48-3.28-1.27-4.56-2.37c-1.29-1.1-2.3-2.55-3.05-4.34s-1.13-4.02-1.13-6.66c0-2.42,0.33-4.57,0.99-6.46
		c0.66-1.89,1.59-3.48,2.8-4.79c1.21-1.3,2.67-2.3,4.37-3c1.71-0.7,3.58-1.04,5.64-1.04c1.21,0,2.41,0.1,3.6,0.3
		c1.19,0.2,2.15,0.43,2.89,0.69V255.67z M608.42,271.79c-0.73-0.29-1.67-0.56-2.8-0.8c-1.14-0.24-2.31-0.36-3.52-0.36
		c-1.72,0-3.22,0.29-4.48,0.88c-1.26,0.59-2.32,1.4-3.16,2.45s-1.48,2.3-1.9,3.77c-0.42,1.47-0.63,3.08-0.63,4.84
		c0,3.81,0.91,6.59,2.72,8.33c1.81,1.74,4.39,2.61,7.73,2.61c1.21,0,2.37-0.06,3.46-0.19c1.1-0.13,1.96-0.28,2.59-0.47V271.79z"/>
	<path class="st0" d="M626.79,282.62c0,3.74,0.86,6.49,2.59,8.25c1.72,1.76,4.31,2.64,7.75,2.64c1.39,0,2.69-0.12,3.88-0.36
		c1.19-0.24,2.36-0.56,3.49-0.96c0.18,0.4,0.33,0.9,0.44,1.49c0.11,0.59,0.18,1.12,0.22,1.59c-1.06,0.48-2.31,0.84-3.74,1.1
		c-1.43,0.26-2.99,0.38-4.68,0.38c-2.42,0-4.5-0.36-6.24-1.07c-1.74-0.72-3.17-1.71-4.29-3c-1.12-1.28-1.94-2.81-2.47-4.59
		c-0.53-1.78-0.8-3.73-0.8-5.86c0-2.05,0.25-3.98,0.74-5.77c0.49-1.8,1.25-3.37,2.26-4.73c1.01-1.36,2.3-2.42,3.88-3.19
		c1.58-0.77,3.46-1.16,5.66-1.16c1.83,0,3.46,0.31,4.9,0.93c1.43,0.62,2.63,1.5,3.6,2.61c0.97,1.12,1.71,2.46,2.2,4.01
		c0.5,1.56,0.74,3.25,0.74,5.09c0,0.33-0.01,0.75-0.03,1.26c-0.02,0.51-0.05,0.95-0.08,1.32H626.79z M643.29,279.6
		c0-1.14-0.15-2.25-0.44-3.36c-0.29-1.1-0.75-2.06-1.38-2.89c-0.63-0.83-1.43-1.49-2.42-2.01c-0.99-0.51-2.18-0.77-3.58-0.77
		c-2.57,0-4.56,0.79-5.99,2.36c-1.43,1.58-2.29,3.79-2.59,6.66H643.29z"/>
	<path class="st0" d="M657.65,268.05c0.29-0.04,0.58-0.06,0.85-0.08c0.28-0.02,0.54-0.03,0.8-0.03c0.29,0,0.57,0.01,0.82,0.03
		c0.26,0.02,0.53,0.05,0.82,0.08c0.07,0.66,0.13,1.48,0.17,2.47c0.04,0.99,0.05,1.85,0.05,2.58c0.37-0.66,0.84-1.33,1.43-2.01
		s1.27-1.29,2.06-1.84s1.7-1,2.72-1.35c1.03-0.35,2.14-0.52,3.36-0.52c3.23,0,5.57,0.96,7.04,2.89s2.2,4.63,2.2,8.11v17.71
		c-0.22,0.04-0.52,0.06-0.91,0.08s-0.69,0.03-0.91,0.03c-0.19,0-0.48-0.01-0.88-0.03c-0.4-0.02-0.71-0.05-0.94-0.08v-16.61
		c0-3.12-0.49-5.35-1.46-6.71c-0.97-1.36-2.43-2.04-4.37-2.04c-1.28,0-2.49,0.26-3.63,0.77c-1.14,0.51-2.12,1.26-2.94,2.23
		c-0.82,0.97-1.48,2.17-1.95,3.6s-0.71,3.06-0.71,4.89v13.86c-0.22,0.04-0.52,0.06-0.91,0.08s-0.69,0.03-0.91,0.03
		c-0.18,0-0.48-0.01-0.88-0.03c-0.4-0.02-0.72-0.05-0.94-0.08V268.05z"/>
	<path class="st0" d="M708.36,255.67c0.22-0.04,0.52-0.06,0.91-0.08c0.38-0.02,0.69-0.03,0.91-0.03c0.18,0,0.47,0.01,0.88,0.03
		c0.4,0.02,0.71,0.05,0.94,0.08v17.38c0.37-0.66,0.84-1.33,1.43-2.01c0.59-0.68,1.27-1.29,2.04-1.84c0.77-0.55,1.64-0.99,2.61-1.32
		c0.97-0.33,2.04-0.5,3.22-0.5c3.23,0,5.6,0.96,7.12,2.89c1.52,1.92,2.28,4.63,2.28,8.11v17.71c-0.22,0.04-0.52,0.06-0.91,0.08
		s-0.69,0.03-0.91,0.03c-0.18,0-0.48-0.01-0.88-0.03c-0.4-0.02-0.71-0.05-0.93-0.08v-16.61c0-3.12-0.51-5.35-1.54-6.71
		c-1.03-1.36-2.51-2.04-4.46-2.04c-1.28,0-2.48,0.24-3.6,0.72c-1.12,0.48-2.08,1.18-2.89,2.12s-1.44,2.11-1.9,3.52
		c-0.46,1.41-0.69,3.04-0.69,4.87v14.13c-0.22,0.04-0.52,0.06-0.91,0.08s-0.69,0.03-0.91,0.03c-0.19,0-0.48-0.01-0.88-0.03
		c-0.4-0.02-0.71-0.05-0.94-0.08V255.67z"/>
	<path class="st0" d="M758.02,277.56c0-2.42-0.57-4.19-1.71-5.31c-1.14-1.12-2.82-1.68-5.06-1.68c-1.47,0-2.8,0.1-4.02,0.3
		c-1.21,0.2-2.29,0.45-3.24,0.74c-0.18-0.33-0.34-0.81-0.47-1.43c-0.13-0.62-0.19-1.21-0.19-1.76c0.95-0.29,2.13-0.54,3.52-0.74
		c1.39-0.2,2.82-0.3,4.29-0.3c3.56,0,6.2,0.78,7.92,2.34c1.72,1.56,2.58,4.01,2.58,7.34v18.54c-1.28,0.26-2.84,0.51-4.67,0.77
		c-1.83,0.26-3.58,0.38-5.22,0.38c-3.41,0-6.1-0.68-8.06-2.04c-1.96-1.36-2.94-3.56-2.94-6.6c0-1.47,0.28-2.78,0.85-3.93
		c0.57-1.16,1.36-2.13,2.37-2.92c1.01-0.79,2.22-1.38,3.63-1.79c1.41-0.4,2.96-0.6,4.65-0.6c1.32,0,2.46,0.05,3.41,0.14
		s1.74,0.17,2.37,0.25V277.56z M758.02,282.46c-0.63-0.07-1.4-0.16-2.34-0.25c-0.94-0.09-1.82-0.14-2.67-0.14
		c-2.75,0-4.88,0.51-6.38,1.54c-1.5,1.03-2.26,2.49-2.26,4.4c0,1.21,0.23,2.18,0.69,2.92s1.05,1.29,1.79,1.68
		c0.73,0.38,1.54,0.64,2.42,0.77c0.88,0.13,1.76,0.19,2.64,0.19c1.14,0,2.2-0.05,3.19-0.17c0.99-0.11,1.96-0.26,2.92-0.44V282.46z"
		/>
	<path class="st0" d="M775.23,271.13h-3.52c-0.04-0.18-0.06-0.4-0.08-0.66c-0.02-0.26-0.03-0.53-0.03-0.83
		c0-0.29,0.01-0.59,0.03-0.88c0.02-0.29,0.04-0.53,0.08-0.71h7.15v28.05c-0.22,0.04-0.52,0.06-0.91,0.08s-0.69,0.03-0.91,0.03
		c-0.19,0-0.48-0.01-0.88-0.03c-0.4-0.02-0.71-0.05-0.94-0.08V271.13z M773.42,261.17c-0.04-0.33-0.06-0.73-0.08-1.21
		c-0.02-0.48-0.03-0.88-0.03-1.21c0-0.29,0.01-0.66,0.03-1.1c0.02-0.44,0.04-0.81,0.08-1.1c0.33-0.04,0.73-0.06,1.21-0.08
		c0.47-0.02,0.88-0.03,1.21-0.03c0.29,0,0.66,0.01,1.1,0.03c0.44,0.02,0.81,0.05,1.1,0.08c0.04,0.29,0.06,0.66,0.08,1.1
		c0.02,0.44,0.03,0.81,0.03,1.1c0,0.33-0.01,0.73-0.03,1.21c-0.02,0.48-0.05,0.88-0.08,1.21c-0.29,0.04-0.66,0.06-1.1,0.08
		c-0.44,0.02-0.81,0.03-1.1,0.03c-0.33,0-0.73-0.01-1.21-0.03C774.15,261.24,773.75,261.21,773.42,261.17z"/>
	<path class="st0" d="M823.25,277.56c0-2.42-0.57-4.19-1.71-5.31c-1.14-1.12-2.82-1.68-5.06-1.68c-1.47,0-2.8,0.1-4.02,0.3
		c-1.21,0.2-2.29,0.45-3.24,0.74c-0.18-0.33-0.34-0.81-0.47-1.43c-0.13-0.62-0.19-1.21-0.19-1.76c0.95-0.29,2.13-0.54,3.52-0.74
		c1.39-0.2,2.82-0.3,4.29-0.3c3.56,0,6.2,0.78,7.92,2.34c1.72,1.56,2.58,4.01,2.58,7.34v18.54c-1.28,0.26-2.84,0.51-4.67,0.77
		c-1.83,0.26-3.58,0.38-5.22,0.38c-3.41,0-6.1-0.68-8.06-2.04c-1.96-1.36-2.94-3.56-2.94-6.6c0-1.47,0.28-2.78,0.85-3.93
		c0.57-1.16,1.36-2.13,2.37-2.92c1.01-0.79,2.22-1.38,3.63-1.79c1.41-0.4,2.96-0.6,4.65-0.6c1.32,0,2.46,0.05,3.41,0.14
		s1.74,0.17,2.37,0.25V277.56z M823.25,282.46c-0.63-0.07-1.4-0.16-2.34-0.25c-0.94-0.09-1.82-0.14-2.67-0.14
		c-2.75,0-4.88,0.51-6.38,1.54c-1.5,1.03-2.26,2.49-2.26,4.4c0,1.21,0.23,2.18,0.69,2.92s1.05,1.29,1.79,1.68
		c0.73,0.38,1.54,0.64,2.42,0.77c0.88,0.13,1.76,0.19,2.64,0.19c1.14,0,2.2-0.05,3.19-0.17c0.99-0.11,1.96-0.26,2.92-0.44V282.46z"
		/>
	<path class="st0" d="M854.21,277.56c0-2.42-0.57-4.19-1.71-5.31c-1.14-1.12-2.82-1.68-5.06-1.68c-1.47,0-2.81,0.1-4.02,0.3
		c-1.21,0.2-2.29,0.45-3.25,0.74c-0.18-0.33-0.34-0.81-0.47-1.43c-0.13-0.62-0.19-1.21-0.19-1.76c0.95-0.29,2.13-0.54,3.52-0.74
		c1.39-0.2,2.82-0.3,4.29-0.3c3.56,0,6.2,0.78,7.92,2.34c1.72,1.56,2.59,4.01,2.59,7.34v18.54c-1.29,0.26-2.84,0.51-4.68,0.77
		c-1.83,0.26-3.57,0.38-5.22,0.38c-3.41,0-6.1-0.68-8.06-2.04c-1.96-1.36-2.94-3.56-2.94-6.6c0-1.47,0.28-2.78,0.85-3.93
		c0.57-1.16,1.36-2.13,2.36-2.92c1.01-0.79,2.22-1.38,3.63-1.79c1.41-0.4,2.96-0.6,4.65-0.6c1.32,0,2.46,0.05,3.41,0.14
		s1.74,0.17,2.37,0.25V277.56z M854.21,282.46c-0.62-0.07-1.4-0.16-2.34-0.25c-0.93-0.09-1.82-0.14-2.67-0.14
		c-2.75,0-4.88,0.51-6.38,1.54c-1.5,1.03-2.25,2.49-2.25,4.4c0,1.21,0.23,2.18,0.69,2.92c0.46,0.73,1.05,1.29,1.79,1.68
		c0.73,0.38,1.54,0.64,2.42,0.77c0.88,0.13,1.76,0.19,2.64,0.19c1.13,0,2.2-0.05,3.19-0.17c0.99-0.11,1.96-0.26,2.91-0.44V282.46z"
		/>
	<path class="st0" d="M868.95,292.25c0.8,0.33,1.85,0.61,3.13,0.85c1.28,0.24,2.51,0.36,3.68,0.36c2.2,0,3.94-0.49,5.23-1.46
		c1.28-0.97,1.92-2.17,1.92-3.6c0-0.99-0.19-1.81-0.58-2.45c-0.39-0.64-0.9-1.18-1.54-1.62c-0.64-0.44-1.37-0.8-2.17-1.07
		c-0.81-0.27-1.63-0.56-2.47-0.85c-0.92-0.29-1.83-0.62-2.72-0.99c-0.9-0.37-1.7-0.83-2.39-1.4c-0.7-0.57-1.26-1.25-1.68-2.06
		c-0.42-0.81-0.63-1.81-0.63-3.02c0-2.24,0.82-4.05,2.45-5.45c1.63-1.39,4.15-2.09,7.56-2.09c1.43,0,2.81,0.13,4.15,0.38
		c1.34,0.26,2.37,0.53,3.11,0.83c-0.18,1.06-0.44,2.11-0.77,3.13c-0.77-0.26-1.75-0.51-2.94-0.77c-1.19-0.26-2.43-0.38-3.71-0.38
		c-2.24,0-3.82,0.39-4.76,1.18c-0.94,0.79-1.4,1.83-1.4,3.11c0,0.7,0.15,1.29,0.47,1.79c0.31,0.5,0.73,0.92,1.27,1.26
		c0.53,0.35,1.13,0.65,1.81,0.91c0.68,0.26,1.4,0.49,2.17,0.71c0.99,0.33,1.99,0.69,3,1.07c1.01,0.38,1.93,0.89,2.75,1.51
		c0.82,0.62,1.5,1.41,2.04,2.36c0.53,0.95,0.8,2.15,0.8,3.58c0,1.32-0.27,2.52-0.8,3.6c-0.53,1.08-1.28,2-2.23,2.75
		c-0.95,0.75-2.09,1.33-3.41,1.73c-1.32,0.4-2.77,0.61-4.35,0.61c-1.76,0-3.33-0.11-4.7-0.33s-2.48-0.51-3.33-0.88
		C868.13,294.45,868.47,293.35,868.95,292.25z"/>
	<path class="st0" d="M912.79,277.56c0-2.42-0.57-4.19-1.71-5.31c-1.14-1.12-2.82-1.68-5.06-1.68c-1.47,0-2.8,0.1-4.02,0.3
		c-1.21,0.2-2.29,0.45-3.24,0.74c-0.18-0.33-0.34-0.81-0.47-1.43c-0.13-0.62-0.19-1.21-0.19-1.76c0.95-0.29,2.13-0.54,3.52-0.74
		c1.39-0.2,2.82-0.3,4.29-0.3c3.56,0,6.2,0.78,7.92,2.34c1.72,1.56,2.58,4.01,2.58,7.34v18.54c-1.28,0.26-2.84,0.51-4.67,0.77
		c-1.83,0.26-3.58,0.38-5.22,0.38c-3.41,0-6.1-0.68-8.06-2.04c-1.96-1.36-2.94-3.56-2.94-6.6c0-1.47,0.28-2.78,0.85-3.93
		c0.57-1.16,1.36-2.13,2.37-2.92c1.01-0.79,2.22-1.38,3.63-1.79c1.41-0.4,2.96-0.6,4.65-0.6c1.32,0,2.46,0.05,3.41,0.14
		s1.74,0.17,2.37,0.25V277.56z M912.79,282.46c-0.63-0.07-1.4-0.16-2.34-0.25c-0.94-0.09-1.82-0.14-2.67-0.14
		c-2.75,0-4.88,0.51-6.38,1.54c-1.5,1.03-2.26,2.49-2.26,4.4c0,1.21,0.23,2.18,0.69,2.92s1.05,1.29,1.79,1.68
		c0.73,0.38,1.54,0.64,2.42,0.77c0.88,0.13,1.76,0.19,2.64,0.19c1.14,0,2.2-0.05,3.19-0.17c0.99-0.11,1.96-0.26,2.92-0.44V282.46z"
		/>
	<path class="st0" d="M943.75,277.56c0-2.42-0.57-4.19-1.71-5.31c-1.14-1.12-2.82-1.68-5.06-1.68c-1.47,0-2.81,0.1-4.02,0.3
		c-1.21,0.2-2.29,0.45-3.25,0.74c-0.18-0.33-0.34-0.81-0.47-1.43c-0.13-0.62-0.19-1.21-0.19-1.76c0.95-0.29,2.13-0.54,3.52-0.74
		c1.39-0.2,2.82-0.3,4.29-0.3c3.56,0,6.2,0.78,7.92,2.34c1.72,1.56,2.59,4.01,2.59,7.34v18.54c-1.29,0.26-2.84,0.51-4.68,0.77
		c-1.83,0.26-3.57,0.38-5.22,0.38c-3.41,0-6.1-0.68-8.06-2.04c-1.96-1.36-2.94-3.56-2.94-6.6c0-1.47,0.28-2.78,0.85-3.93
		c0.57-1.16,1.36-2.13,2.36-2.92c1.01-0.79,2.22-1.38,3.63-1.79c1.41-0.4,2.96-0.6,4.65-0.6c1.32,0,2.46,0.05,3.41,0.14
		s1.74,0.17,2.37,0.25V277.56z M943.75,282.46c-0.62-0.07-1.4-0.16-2.34-0.25c-0.93-0.09-1.82-0.14-2.67-0.14
		c-2.75,0-4.88,0.51-6.38,1.54c-1.5,1.03-2.25,2.49-2.25,4.4c0,1.21,0.23,2.18,0.69,2.92c0.46,0.73,1.05,1.29,1.79,1.68
		c0.73,0.38,1.54,0.64,2.42,0.77c0.88,0.13,1.76,0.19,2.64,0.19c1.13,0,2.2-0.05,3.19-0.17c0.99-0.11,1.96-0.26,2.91-0.44V282.46z"
		/>
	<path class="st0" d="M959.26,268.05c0.29-0.04,0.58-0.06,0.85-0.08c0.28-0.02,0.54-0.03,0.8-0.03c0.29,0,0.57,0.01,0.82,0.03
		c0.26,0.02,0.53,0.05,0.82,0.08c0.07,0.66,0.13,1.48,0.17,2.47c0.04,0.99,0.05,1.85,0.05,2.58c0.37-0.66,0.84-1.33,1.43-2.01
		s1.27-1.29,2.06-1.84s1.7-1,2.72-1.35c1.03-0.35,2.14-0.52,3.36-0.52c3.23,0,5.57,0.96,7.04,2.89s2.2,4.63,2.2,8.11v17.71
		c-0.22,0.04-0.52,0.06-0.91,0.08s-0.69,0.03-0.91,0.03c-0.19,0-0.48-0.01-0.88-0.03c-0.4-0.02-0.71-0.05-0.94-0.08v-16.61
		c0-3.12-0.49-5.35-1.46-6.71c-0.97-1.36-2.43-2.04-4.37-2.04c-1.28,0-2.49,0.26-3.63,0.77c-1.14,0.51-2.12,1.26-2.94,2.23
		c-0.82,0.97-1.48,2.17-1.95,3.6s-0.71,3.06-0.71,4.89v13.86c-0.22,0.04-0.52,0.06-0.91,0.08s-0.69,0.03-0.91,0.03
		c-0.18,0-0.48-0.01-0.88-0.03c-0.4-0.02-0.72-0.05-0.94-0.08V268.05z"/>
</g>
<g>
	<path class="st0" d="M986.87,140.13h-4.54c-0.03-0.16-0.06-0.34-0.07-0.53c-0.02-0.2-0.02-0.38-0.02-0.56
		c0-0.18,0.01-0.36,0.02-0.55c0.02-0.19,0.04-0.36,0.07-0.52h11.57c0.03,0.16,0.06,0.33,0.07,0.51c0.02,0.18,0.02,0.36,0.02,0.53
		c0,0.18-0.01,0.37-0.02,0.57c-0.02,0.2-0.04,0.38-0.07,0.55h-4.54v15.31c-0.37,0.05-0.78,0.07-1.21,0.07
		c-0.45,0-0.88-0.02-1.26-0.07V140.13z"/>
	<path class="st0" d="M997.13,137.97c0.19-0.03,0.42-0.06,0.67-0.07c0.25-0.02,0.49-0.02,0.72-0.02c0.23,0,0.47,0.01,0.74,0.02
		c0.27,0.02,0.49,0.04,0.67,0.07l4.52,10.94l4.54-10.94c0.16-0.03,0.36-0.06,0.61-0.07c0.24-0.02,0.48-0.02,0.71-0.02
		c0.21,0,0.45,0.01,0.7,0.02c0.26,0.02,0.48,0.04,0.66,0.07l0.83,17.48c-0.19,0.03-0.39,0.06-0.6,0.07
		c-0.2,0.02-0.41,0.02-0.62,0.02s-0.42-0.01-0.62-0.02c-0.2-0.02-0.39-0.04-0.57-0.07l-0.56-13.59l-4.28,9.97
		c-0.32,0.05-0.66,0.07-1,0.07c-0.31,0-0.62-0.02-0.92-0.07l-4.13-10.04l-0.56,13.66c-0.18,0.03-0.36,0.06-0.56,0.07
		c-0.19,0.02-0.38,0.02-0.56,0.02c-0.21,0-0.41-0.01-0.61-0.02c-0.19-0.02-0.38-0.04-0.56-0.07L997.13,137.97z"/>
</g>
</svg>
